<?xml version="1.0" encoding="UTF-8" standalone="no"?>
<svg
   version="1.1"
   width="94px"
   height="94px"
   style="shape-rendering:geometricPrecision; text-rendering:geometricPrecision; image-rendering:optimizeQuality; fill-rule:evenodd; clip-rule:evenodd"
   id="svg182"
   sodipodi:docname="note_splitter.svg"
   inkscape:version="1.2.2 (732a01da63, 2022-12-09)"
   xmlns:inkscape="http://www.inkscape.org/namespaces/inkscape"
   xmlns:sodipodi="http://sodipodi.sourceforge.net/DTD/sodipodi-0.dtd"
   xmlns:xlink="http://www.w3.org/1999/xlink"
   xmlns="http://www.w3.org/2000/svg"
   xmlns:svg="http://www.w3.org/2000/svg">
  <defs
     id="defs186" />
  <sodipodi:namedview
     id="namedview184"
     pagecolor="#ffffff"
     bordercolor="#000000"
     borderopacity="0.25"
     inkscape:showpageshadow="2"
     inkscape:pageopacity="0.0"
     inkscape:pagecheckerboard="0"
     inkscape:deskcolor="#d1d1d1"
     showgrid="false"
     inkscape:zoom="8.8191489"
     inkscape:cx="-11.452352"
     inkscape:cy="38.325694"
     inkscape:window-width="1920"
     inkscape:window-height="1009"
     inkscape:window-x="-8"
     inkscape:window-y="-8"
     inkscape:window-maximized="1"
     inkscape:current-layer="svg182" />
  <g
     id="g4">
    <path
       style="opacity:1"
       fill="#bee3fc"
       d="m 59.5,24.5 v 1 c -3.6096,2.6184 -6.6096,5.9517 -9,10 -0.825,0.8857 -1.087967,2.012727 -2.262967,1.793727 0.262,1.4778 -0.865028,2.244252 -1.793728,3.433052 C 45.454105,37.119479 45.1774,33.226 45.5,29.5 c -4.0546,0.3242 -8.0546,-0.0091 -12,-1 2.3002,-3.7991 5.1335,-7.1324 8.5,-10 2.4029,-4.4678 5.0696,-8.80118 8,-13 -0.3907,5.6833 -1.2241,11.35 -2.5,17 4.4707,-0.5894 8.4707,0.0772 12,2 z"
       id="path2"
       sodipodi:nodetypes="ccccccccccc" />
  </g>
  <g
     id="g12">
    <path
       style="opacity:0.998"
       fill="#fee885"
       d="M 43.5,10.5 C 43.7271,12.9328 42.7271,14.5994 40.5,15.5C 38.3718,14.3709 36.0385,14.2042 33.5,15C 26.862,18.5687 20.0286,21.7354 13,24.5C 12.6667,23.8333 12.3333,23.1667 12,22.5C 11.8019,24.3817 11.3019,26.0484 10.5,27.5C 10.3342,22.8215 10.5008,18.1548 11,13.5C 11.3076,12.6919 11.8076,12.0253 12.5,11.5C 22.781,10.524 33.1143,10.1907 43.5,10.5 Z"
       id="path10" />
  </g>
  <g
     id="g16">
    <path
       style="opacity:1"
       fill="#fae158"
       d="m 50.714113,10.5 c 9.515,-0.3269 20.634187,0.0064 29.785887,1 -6.0092,-0.1662 -12.0092,5e-4 -18,0.5 0.6667,0.3333 1.3333,0.6667 2,1 -2.5196,1.7632 -4.8529,3.7632 -7,6 1.4047,1.2692 3.0714,1.7692 5,1.5 0.2373,1.291 -0.096,2.291 -1,3 -3.5293,-1.9228 -7.5293,-2.5894 -12,-2 -0.0489,-2.8743 -0.08412,-5.906132 0.631484,-8.698432 0.1842,-1.3756 -0.566471,-2.010468 0.582629,-2.301568 z"
       id="path14"
       sodipodi:nodetypes="cccccccccc" />
  </g>
  <g
     id="g20">
    <path
       style="opacity:1"
       fill="#fddf72"
       d="M 40.5,15.5 C 37.1667,20.5 33.8333,25.5 30.5,30.5C 29.7784,30.0825 29.2784,29.4158 29,28.5C 23.7415,31.6742 18.4082,34.6742 13,37.5C 12.6667,36.8333 12.3333,36.1667 12,35.5C 11.5017,38.8168 11.335,42.1501 11.5,45.5C 11.5,46.1667 11.1667,46.5 10.5,46.5C 10.5,40.1667 10.5,33.8333 10.5,27.5C 11.3019,26.0484 11.8019,24.3817 12,22.5C 12.3333,23.1667 12.6667,23.8333 13,24.5C 20.0286,21.7354 26.862,18.5687 33.5,15C 36.0385,14.2042 38.3718,14.3709 40.5,15.5 Z"
       id="path18" />
  </g>
  <g
     id="g24">
    <path
       style="opacity:1"
       fill="#fdd437"
       d="M 80.5,11.5 C 81.1174,11.6107 81.6174,11.944 82,12.5C 82.4997,20.1594 82.6664,27.8261 82.5,35.5C 81.8333,35.5 81.5,35.1667 81.5,34.5C 81.6646,31.4816 81.498,28.4816 81,25.5C 80.586,25.0426 80.086,24.7093 79.5,24.5C 75.7266,26.4301 72.0599,28.5967 68.5,31C 64.5138,31.4988 60.5138,31.6655 56.5,31.5C 56.5,31.1667 56.5,30.8333 56.5,30.5C 57.7515,28.9991 58.7515,27.3325 59.5,25.5C 59.5,25.1667 59.5,24.8333 59.5,24.5C 60.1667,24.1667 60.8333,23.8333 61.5,23.5C 62.404,22.791 62.7373,21.791 62.5,20.5C 60.5714,20.7692 58.9047,20.2692 57.5,19C 59.6471,16.7632 61.9804,14.7632 64.5,13C 63.8333,12.6667 63.1667,12.3333 62.5,12C 68.4908,11.5005 74.4908,11.3338 80.5,11.5 Z"
       id="path22" />
  </g>
  <g
     id="g32">
    <path
       style="opacity:1"
       fill="#cf9a44"
       d="M 43.5,32.5 C 43.7678,34.099 43.4345,35.4324 42.5,36.5C 37.3491,35.6733 32.0158,35.1733 26.5,35C 26.0426,34.586 25.7093,34.086 25.5,33.5C 31.4632,32.5041 37.4632,32.1707 43.5,32.5 Z"
       id="path30" />
  </g>
  <g
     id="g36">
    <path
       style="opacity:1"
       fill="#d19f4b"
       d="M 56.5,30.5 C 56.5,30.8333 56.5,31.1667 56.5,31.5C 60.2984,32.4834 64.2984,32.8168 68.5,32.5C 68.5,33.5 68.5,34.5 68.5,35.5C 63.0735,35.2175 57.7401,35.5509 52.5,36.5C 53.3403,34.1475 54.6736,32.1475 56.5,30.5 Z"
       id="path34" />
  </g>
  <g
     id="g40">
    <path
       style="opacity:1"
       fill="#f8d158"
       d="M 30.5,30.5 C 35.294,29.9031 39.6273,30.5698 43.5,32.5C 37.4632,32.1707 31.4632,32.5041 25.5,33.5C 25.7093,34.086 26.0426,34.586 26.5,35C 32.0158,35.1733 37.3491,35.6733 42.5,36.5C 42.7947,38.7354 42.4614,40.7354 41.5,42.5C 41.5,40.5 41.5,38.5 41.5,36.5C 36.7863,36.1734 32.1196,36.5067 27.5,37.5C 23.1391,41.4376 18.3058,44.7709 13,47.5C 12.7216,46.5842 12.2216,45.9175 11.5,45.5C 11.335,42.1501 11.5017,38.8168 12,35.5C 12.3333,36.1667 12.6667,36.8333 13,37.5C 18.4082,34.6742 23.7415,31.6742 29,28.5C 29.2784,29.4158 29.7784,30.0825 30.5,30.5 Z"
       id="path38" />
  </g>
  <g
     id="g44">
    <path
       style="opacity:1"
       fill="#fdcb2e"
       d="M 81.5,34.5 C 80.5416,34.0472 79.7083,33.3805 79,32.5C 78.5581,34.6785 77.5581,35.3452 76,34.5C 72.3779,37.0605 68.5446,39.2272 64.5,41C 65.1667,41.3333 65.8333,41.6667 66.5,42C 60.8431,42.4994 55.1764,42.6661 49.5,42.5C 49.5,41.8333 49.5,41.1667 49.5,40.5C 50.0256,38.7697 51.0256,37.4363 52.5,36.5C 57.7401,35.5509 63.0735,35.2175 68.5,35.5C 68.5,34.5 68.5,33.5 68.5,32.5C 64.2984,32.8168 60.2984,32.4834 56.5,31.5C 60.5138,31.6655 64.5138,31.4988 68.5,31C 72.0599,28.5967 75.7266,26.4301 79.5,24.5C 80.086,24.7093 80.586,25.0426 81,25.5C 81.498,28.4816 81.6646,31.4816 81.5,34.5 Z"
       id="path42" />
  </g>
  <g
     id="g48">
    <path
       style="opacity:0.999"
       fill="#fdd046"
       d="M 41.5,42.5 C 41.5,42.8333 41.5,43.1667 41.5,43.5C 36.5,43.5 31.5,43.5 26.5,43.5C 26.5,44.8333 26.5,46.1667 26.5,47.5C 25.2617,47.81 25.2617,48.31 26.5,49C 22.9753,51.698 19.6419,54.5314 16.5,57.5C 15.1779,57.33 14.0113,57.6634 13,58.5C 12.6667,56.5 12.3333,54.5 12,52.5C 11.5002,61.4938 11.3336,70.4938 11.5,79.5C 11.1667,79.5 10.8333,79.5 10.5,79.5C 10.5,68.5 10.5,57.5 10.5,46.5C 11.1667,46.5 11.5,46.1667 11.5,45.5C 12.2216,45.9175 12.7216,46.5842 13,47.5C 18.3058,44.7709 23.1391,41.4376 27.5,37.5C 32.1196,36.5067 36.7863,36.1734 41.5,36.5C 41.5,38.5 41.5,40.5 41.5,42.5 Z"
       id="path46" />
  </g>
  <g
     id="g52">
    <path
       style="opacity:1"
       fill="#fdc023"
       d="M 81.5,34.5 C 81.5,35.1667 81.8333,35.5 82.5,35.5C 82.5,42.5 82.5,49.5 82.5,56.5C 82.1667,56.5 81.8333,56.5 81.5,56.5C 80.596,55.791 80.2627,54.791 80.5,53.5C 81.9323,50.7328 81.599,48.0662 79.5,45.5C 68.5333,47.8145 59.2,52.9812 51.5,61C 47.9212,62.7059 44.4212,64.5392 41,66.5C 40.6012,66.2716 40.4346,65.9382 40.5,65.5C 43.988,62.9118 47.3213,60.0785 50.5,57C 49.2845,54.9045 48.4512,55.0712 48,57.5C 47.7216,56.5842 47.2216,55.9175 46.5,55.5C 46.5,55.1667 46.5,54.8333 46.5,54.5C 46.8588,52.629 47.8588,51.129 49.5,50C 52.2507,49.0572 54.9174,48.2239 57.5,47.5C 60.8499,47.665 64.1832,47.4983 67.5,47C 68.8333,46 68.8333,45 67.5,44C 60.7468,43.8523 54.7468,43.3523 49.5,42.5C 55.1764,42.6661 60.8431,42.4994 66.5,42C 65.8333,41.6667 65.1667,41.3333 64.5,41C 68.5446,39.2272 72.3779,37.0605 76,34.5C 77.5581,35.3452 78.5581,34.6785 79,32.5C 79.7083,33.3805 80.5416,34.0472 81.5,34.5 Z"
       id="path50" />
  </g>
  <g
     id="g56">
    <path
       style="opacity:1"
       fill="#d19e47"
       d="M 41.5,43.5 C 40.701,46.4299 40.3677,49.4299 40.5,52.5C 39.5489,51.0813 39.2155,49.4147 39.5,47.5C 35.1667,47.5 30.8333,47.5 26.5,47.5C 26.5,46.1667 26.5,44.8333 26.5,43.5C 31.5,43.5 36.5,43.5 41.5,43.5 Z"
       id="path54" />
  </g>
  <g
     id="g595"
     clip-path="none">
    <g
       inkscape:label="Clip"
       id="g593">
      <path
         fill="#a8bcc2"
         d="m 50.629071,11.463811 c -1.716048,8.511848 -0.39843,-0.0095 -0.58263,1.366105 C 49.387536,21.518476 49.4511,18.6257 49.5,21.5 c 4.4707,-0.5894 8.4707,0.0772 12,2 -0.6667,0.3333 -1.3333,0.6667 -2,1 -3.5293,-1.9228 -7.5293,-2.5894 -12,-2 1.2759,-5.65 2.1093,-11.3167 2.5,-17 -2.9304,4.19882 -5.5971,8.5322 -8,13 -3.3665,2.8676 -6.1998,6.2009 -8.5,10 3.9454,0.9909 7.9454,1.3242 12,1 -0.3226,3.726 0.0108,7.3927 1,11 0.9287,-1.1888 1.942338,-2.011947 1.680338,-3.489747 C 49.355338,37.229253 49.675,36.3857 50.5,35.5 c 2.3904,-4.0483 5.3904,-7.3816 9,-10 -0.7485,1.8325 -1.7485,3.4991 -3,5 -1.8264,1.6475 -3.1597,3.6475 -4,6 -1.4744,0.9363 -2.4744,2.2697 -3,4 -2.0224,2.0313 -3.6891,4.3646 -5,7 -1.3333,1.6667 -2.6667,3.3333 -4,5 -0.1323,-3.0701 0.201,-6.0701 1,-9 v -1 c 0.9614,-1.7646 1.2947,-3.7646 1,-6 0.9345,-1.0676 1.2678,-2.401 1,-4 -3.8727,-1.9302 -8.206,-2.5969 -13,-2 3.3333,-5 2.868148,-4.387214 6.201448,-9.387214 1.206593,-1.580937 2.546762,-3.360927 4.700844,-7.154402 5.936258,-10.0147101 -3.723573,6.380344 4.130277,-7.2261765 3.189754,-3.6216292 4.792153,-6.05267726 2.482509,-2.4740652 3.64776,-5.3804614 -1.749941,1.8710464 2.969844,-3.87153193 -1.637281,21.43265263 -0.439921,0.004018 -0.376358,8.51025333 -1.81544,12.8166923 -1.426283,12.8699723 0.03378,1.1236433 0.575507,-9.24108939 -0.09036,-8.5143101 -0.01327,1.443304 z"
         id="path58"
         sodipodi:nodetypes="cccccccccccccccccccccccccccccccc" />
    </g>
  </g>
  <use
     x="0"
     y="0"
     xlink:href="#g593"
     id="use599" />
  <g
     id="g64">
    <path
       style="opacity:1"
       fill="#cf9844"
       d="M 49.5,40.5 C 49.5,41.1667 49.5,41.8333 49.5,42.5C 54.7468,43.3523 60.7468,43.8523 67.5,44C 68.8333,45 68.8333,46 67.5,47C 64.1832,47.4983 60.8499,47.665 57.5,47.5C 53.1667,47.5 48.8333,47.5 44.5,47.5C 45.8109,44.8646 47.4776,42.5313 49.5,40.5 Z"
       id="path62" />
  </g>
  <g
     id="g68">
    <path
       style="opacity:1"
       fill="#fdc935"
       d="M 26.5,47.5 C 30.8333,47.5 35.1667,47.5 39.5,47.5C 39.2155,49.4147 39.5489,51.0813 40.5,52.5C 41.8333,50.8333 43.1667,49.1667 44.5,47.5C 48.8333,47.5 53.1667,47.5 57.5,47.5C 54.9174,48.2239 52.2507,49.0572 49.5,50C 47.8588,51.129 46.8588,52.629 46.5,54.5C 39.825,54.3337 33.1583,54.5004 26.5,55C 25.7476,55.6708 25.4142,56.5041 25.5,57.5C 23.1159,56.9575 20.1159,56.9575 16.5,57.5C 19.6419,54.5314 22.9753,51.698 26.5,49C 25.2617,48.31 25.2617,47.81 26.5,47.5 Z"
       id="path66" />
  </g>
  <g
     id="g72">
    <path
       style="opacity:1"
       fill="#fbb621"
       d="M 80.5,53.5 C 80.5,52.1667 80.5,50.8333 80.5,49.5C 70.4892,49.8382 62.1559,54.0049 55.5,62C 50.6608,65.1754 45.8274,68.3421 41,71.5C 40.3333,72.5 40.3333,73.5 41,74.5C 44.3166,73.5673 47.4832,72.0673 50.5,70C 47.9832,72.3494 45.6499,74.8494 43.5,77.5C 41.3392,78.0351 39.3392,78.8684 37.5,80C 43.8431,82.4644 49.8431,81.9644 55.5,78.5C 56.2975,78.9569 56.6309,79.6236 56.5,80.5C 56.1667,81.1667 55.8333,81.8333 55.5,82.5C 41.5,82.5 27.5,82.5 13.5,82.5C 12.7814,80.2362 12.448,77.9029 12.5,75.5C 17.051,72.8147 22.051,71.3147 27.5,71C 32.1825,69.8331 36.5158,67.9998 40.5,65.5C 40.4346,65.9382 40.6012,66.2716 41,66.5C 44.4212,64.5392 47.9212,62.7059 51.5,61C 59.2,52.9812 68.5333,47.8145 79.5,45.5C 81.599,48.0662 81.9323,50.7328 80.5,53.5 Z"
       id="path70" />
  </g>
  <g
     id="g76">
    <path
       style="opacity:1"
       fill="#ce9541"
       d="M 46.5,54.5 C 46.5,54.8333 46.5,55.1667 46.5,55.5C 46.5,56.5 46.5,57.5 46.5,58.5C 39.8333,58.5 33.1667,58.5 26.5,58.5C 26.5,57.8333 26.1667,57.5 25.5,57.5C 25.4142,56.5041 25.7476,55.6708 26.5,55C 33.1583,54.5004 39.825,54.3337 46.5,54.5 Z"
       id="path74" />
  </g>
  <g
     id="g80">
    <path
       style="opacity:0.998"
       fill="#fec533"
       d="M 16.5,57.5 C 20.1159,56.9575 23.1159,56.9575 25.5,57.5C 26.1667,57.5 26.5,57.8333 26.5,58.5C 32.6534,59.3279 38.9867,59.8279 45.5,60C 35.2258,62.1023 24.8925,64.1023 14.5,66C 12.7732,68.9036 12.1065,72.0703 12.5,75.5C 12.448,77.9029 12.7814,80.2362 13.5,82.5C 12.0937,82.0269 11.427,81.0269 11.5,79.5C 11.3336,70.4938 11.5002,61.4938 12,52.5C 12.3333,54.5 12.6667,56.5 13,58.5C 14.0113,57.6634 15.1779,57.33 16.5,57.5 Z"
       id="path78" />
  </g>
  <g
     id="g84">
    <path
       style="opacity:0.004"
       fill="#fffeca"
       d="M 82.5,56.5 C 82.8333,56.5 83.1667,56.5 83.5,56.5C 83.6716,57.4916 83.3382,58.1583 82.5,58.5C 82.5,57.8333 82.5,57.1667 82.5,56.5 Z"
       id="path82" />
  </g>
  <g
     id="g88">
    <path
       style="opacity:0.004"
       fill="#fefffe"
       d="M 81.5,58.5 C 81.8333,58.5 82.1667,58.5 82.5,58.5C 82.3147,59.1701 81.9813,59.1701 81.5,58.5 Z"
       id="path86" />
  </g>
  <g
     id="g92">
    <path
       style="opacity:0.008"
       fill="#fe807f"
       d="M 80.5,59.5 C 80.8333,59.5 81.1667,59.5 81.5,59.5C 81.3147,60.1701 80.9813,60.1701 80.5,59.5 Z"
       id="path90" />
  </g>
  <g
     id="g96">
    <path
       style="opacity:1"
       fill="#f8ab19"
       d="M 80.5,53.5 C 80.2627,54.791 80.596,55.791 81.5,56.5C 81.5,57.1667 81.5,57.8333 81.5,58.5C 81.1667,58.5 80.8333,58.5 80.5,58.5C 79.5,58.5 78.5,58.5 77.5,58.5C 72.1563,58.334 66.8229,58.5006 61.5,59C 61,59.5 60.5,60 60,60.5C 59.501,64.8206 59.3343,69.1539 59.5,73.5C 58.5448,75.7457 57.8782,78.079 57.5,80.5C 57.1667,80.5 56.8333,80.5 56.5,80.5C 56.6309,79.6236 56.2975,78.9569 55.5,78.5C 49.8431,81.9644 43.8431,82.4644 37.5,80C 39.3392,78.8684 41.3392,78.0351 43.5,77.5C 45.6499,74.8494 47.9832,72.3494 50.5,70C 47.4832,72.0673 44.3166,73.5673 41,74.5C 40.3333,73.5 40.3333,72.5 41,71.5C 45.8274,68.3421 50.6608,65.1754 55.5,62C 62.1559,54.0049 70.4892,49.8382 80.5,49.5C 80.5,50.8333 80.5,52.1667 80.5,53.5 Z"
       id="path94" />
  </g>
  <g
     id="g100">
    <path
       style="opacity:0.012"
       fill="#a95554"
       d="M 79.5,60.5 C 79.8333,60.5 80.1667,60.5 80.5,60.5C 80.3147,61.1701 79.9813,61.1701 79.5,60.5 Z"
       id="path98" />
  </g>
  <g
     id="g104">
    <path
       style="opacity:0.999"
       fill="#90572d"
       d="M 77.5,58.5 C 73.8828,59.6639 70.5495,61.4972 67.5,64C 65.667,67.9892 63.0003,71.1559 59.5,73.5C 59.3343,69.1539 59.501,64.8206 60,60.5C 60.5,60 61,59.5 61.5,59C 66.8229,58.5006 72.1563,58.334 77.5,58.5 Z"
       id="path102" />
  </g>
  <g
     id="g108">
    <path
       style="opacity:0.012"
       fill="#a95554"
       d="M 78.5,61.5 C 78.8333,61.5 79.1667,61.5 79.5,61.5C 79.3147,62.1701 78.9813,62.1701 78.5,61.5 Z"
       id="path106" />
  </g>
  <g
     id="g112">
    <path
       style="opacity:0.998"
       fill="#fdbe2c"
       d="M 46.5,55.5 C 47.2216,55.9175 47.7216,56.5842 48,57.5C 48.4512,55.0712 49.2845,54.9045 50.5,57C 47.3213,60.0785 43.988,62.9118 40.5,65.5C 36.5158,67.9998 32.1825,69.8331 27.5,71C 22.051,71.3147 17.051,72.8147 12.5,75.5C 12.1065,72.0703 12.7732,68.9036 14.5,66C 24.8925,64.1023 35.2258,62.1023 45.5,60C 38.9867,59.8279 32.6534,59.3279 26.5,58.5C 33.1667,58.5 39.8333,58.5 46.5,58.5C 46.5,57.5 46.5,56.5 46.5,55.5 Z"
       id="path110" />
  </g>
  <g
     id="g116">
    <path
       style="opacity:0.012"
       fill="#a95554"
       d="M 77.5,62.5 C 77.8333,62.5 78.1667,62.5 78.5,62.5C 78.3147,63.1701 77.9813,63.1701 77.5,62.5 Z"
       id="path114" />
  </g>
  <g
     id="g120">
    <path
       style="opacity:0.012"
       fill="#a95554"
       d="M 76.5,63.5 C 76.8333,63.5 77.1667,63.5 77.5,63.5C 77.3147,64.1701 76.9813,64.1701 76.5,63.5 Z"
       id="path118" />
  </g>
  <g
     id="g124">
    <path
       style="opacity:0.008"
       fill="#7f807f"
       d="M 75.5,64.5 C 75.8333,64.5 76.1667,64.5 76.5,64.5C 76.3147,65.1701 75.9813,65.1701 75.5,64.5 Z"
       id="path122" />
  </g>
  <g
     id="g128">
    <path
       style="opacity:0.993"
       fill="#70412a"
       d="M 77.5,58.5 C 78.5,58.5 79.5,58.5 80.5,58.5C 80.5,58.8333 80.5,59.1667 80.5,59.5C 79.8333,59.5 79.5,59.8333 79.5,60.5C 78.8333,60.5 78.5,60.8333 78.5,61.5C 77.8333,61.5 77.5,61.8333 77.5,62.5C 76.8333,62.5 76.5,62.8333 76.5,63.5C 75.8333,63.5 75.5,63.8333 75.5,64.5C 73.7697,65.0256 72.4363,66.0256 71.5,67.5C 70.8333,67.5 70.5,67.8333 70.5,68.5C 69.8333,68.5 69.5,68.8333 69.5,69.5C 68.8333,69.5 68.5,69.8333 68.5,70.5C 67.8333,70.5 67.5,70.8333 67.5,71.5C 66.8333,71.5 66.5,71.8333 66.5,72.5C 65.8333,72.5 65.5,72.8333 65.5,73.5C 64.8333,73.5 64.5,73.8333 64.5,74.5C 63.8333,74.5 63.5,74.8333 63.5,75.5C 62.8333,75.5 62.5,75.8333 62.5,76.5C 61.8333,76.5 61.5,76.8333 61.5,77.5C 60.8333,77.5 60.5,77.8333 60.5,78.5C 59.8333,78.5 59.5,78.8333 59.5,79.5C 58.8333,79.5 58.5,79.8333 58.5,80.5C 58.1667,80.5 57.8333,80.5 57.5,80.5C 57.8782,78.079 58.5448,75.7457 59.5,73.5C 63.0003,71.1559 65.667,67.9892 67.5,64C 70.5495,61.4972 73.8828,59.6639 77.5,58.5 Z"
       id="path126" />
  </g>
  <g
     id="g132">
    <path
       style="opacity:0.004"
       fill="#d8c0bc"
       d="M 71.5,67.5 C 72.2389,67.369 72.9056,67.5357 73.5,68C 71.5588,70.4536 69.2254,72.287 66.5,73.5C 66.5,73.1667 66.5,72.8333 66.5,72.5C 67.1667,72.5 67.5,72.1667 67.5,71.5C 68.1667,71.5 68.5,71.1667 68.5,70.5C 69.1667,70.5 69.5,70.1667 69.5,69.5C 70.1667,69.5 70.5,69.1667 70.5,68.5C 71.1667,68.5 71.5,68.1667 71.5,67.5 Z"
       id="path130" />
  </g>
  <g
     id="g136">
    <path
       style="opacity:0.008"
       fill="#7f807f"
       d="M 65.5,73.5 C 65.8333,73.5 66.1667,73.5 66.5,73.5C 66.3147,74.1701 65.9813,74.1701 65.5,73.5 Z"
       id="path134" />
  </g>
  <g
     id="g140">
    <path
       style="opacity:0.012"
       fill="#a95554"
       d="M 64.5,74.5 C 64.8333,74.5 65.1667,74.5 65.5,74.5C 65.3147,75.1701 64.9813,75.1701 64.5,74.5 Z"
       id="path138" />
  </g>
  <g
     id="g144">
    <path
       style="opacity:0.012"
       fill="#a95554"
       d="M 63.5,75.5 C 63.8333,75.5 64.1667,75.5 64.5,75.5C 64.3147,76.1701 63.9813,76.1701 63.5,75.5 Z"
       id="path142" />
  </g>
  <g
     id="g148">
    <path
       style="opacity:0.012"
       fill="#a95554"
       d="M 62.5,76.5 C 62.8333,76.5 63.1667,76.5 63.5,76.5C 63.3147,77.1701 62.9813,77.1701 62.5,76.5 Z"
       id="path146" />
  </g>
  <g
     id="g152">
    <path
       style="opacity:0.016"
       fill="#7f403f"
       d="M 61.5,77.5 C 61.8333,77.5 62.1667,77.5 62.5,77.5C 62.3147,78.1701 61.9813,78.1701 61.5,77.5 Z"
       id="path150" />
  </g>
  <g
     id="g156">
    <path
       style="opacity:0.016"
       fill="#7f403f"
       d="M 60.5,78.5 C 60.8333,78.5 61.1667,78.5 61.5,78.5C 61.3147,79.1701 60.9813,79.1701 60.5,78.5 Z"
       id="path154" />
  </g>
  <g
     id="g160">
    <path
       style="opacity:0.016"
       fill="#7f403f"
       d="M 59.5,79.5 C 59.8333,79.5 60.1667,79.5 60.5,79.5C 60.3147,80.1701 59.9813,80.1701 59.5,79.5 Z"
       id="path158" />
  </g>
  <g
     id="g164">
    <path
       style="opacity:0.008"
       fill="#fffe64"
       d="M 9.5,79.5 C 9.83333,79.5 10.1667,79.5 10.5,79.5C 10.1667,82.1667 9.83333,82.1667 9.5,79.5 Z"
       id="path162" />
  </g>
  <g
     id="g168">
    <path
       style="opacity:0.016"
       fill="#be803f"
       d="M 58.5,80.5 C 58.8333,80.5 59.1667,80.5 59.5,80.5C 59.3147,81.1701 58.9813,81.1701 58.5,80.5 Z"
       id="path166" />
  </g>
  <g
     id="g172">
    <path
       style="opacity:0.004"
       fill="#fefffe"
       d="M 58.5,81.5 C 57.8333,82.1667 57.8333,82.1667 58.5,81.5 Z"
       id="path170" />
  </g>
  <g
     id="g176">
    <path
       style="opacity:0.016"
       fill="#febf3f"
       d="M 55.5,82.5 C 56.8333,83.1667 56.8333,83.1667 55.5,82.5 Z"
       id="path174" />
  </g>
  <path
     style="fill:#bee3fc;fill-opacity:1;stroke-width:0.11339"
     d="m 40.521873,50.515078 c 0.0765,-2.03785 0.357927,-4.264064 0.745175,-5.894584 0.128455,-0.540866 0.233555,-1.236188 0.233555,-1.545158 0,-0.372746 0.09431,-0.747879 0.280291,-1.114893 0.57398,-1.132695 0.770697,-2.08858 0.795587,-3.865916 0.02197,-1.568453 0.03749,-1.670355 0.319617,-2.097708 0.493317,-0.747257 0.673844,-1.390199 0.68858,-2.452352 0.0075,-0.540472 -0.01982,-1.016142 -0.0607,-1.057045 -0.17621,-0.176295 -2.227758,-0.990009 -3.296919,-1.307671 -2.383756,-0.708245 -3.469488,-0.846129 -6.670472,-0.847125 l -2.898181,-9.01e-4 1.981232,-3.004825 c 1.089678,-1.652654 2.416757,-3.668155 2.949066,-4.47889 0.532309,-0.810736 1.384689,-2.035344 1.894178,-2.721351 1.636756,-2.20383 2.86065,-4.202226 6.562472,-10.71532 C 44.842883,8.0081423 45.66485,6.655971 45.871948,6.4065139 47.672001,4.2382742 48.4503,3.344994 48.539394,3.344994 c 0.05762,0 0.104758,-0.038269 0.104758,-0.085042 0,-0.046773 0.08093,-0.1743365 0.179841,-0.283474 0.375103,-0.4138769 0.985294,-1.1287071 1.495236,-1.7516496 0.290896,-0.35535535 0.546589,-0.62841314 0.568207,-0.60679506 0.06052,0.0605231 -0.421191,5.93666076 -0.542106,6.61281186 -0.05877,0.3286536 -0.131248,1.1450589 -0.161058,1.814234 -0.05287,1.1868398 -0.05147,1.1958238 0.0572,0.3662601 0.06127,-0.4677322 0.154154,-1.1565742 0.206403,-1.53076 l 0.095,-0.6803377 0.01437,0.8504221 c 0.01211,0.7170112 -0.444974,4.5646553 -0.606165,5.1025333 -0.02804,0.09355 -0.155423,1.165078 -0.283088,2.381182 -0.127664,1.216104 -0.262754,2.4089 -0.300202,2.650659 -0.04047,0.261254 -0.02508,0.41298 0.03794,0.374035 0.06473,-0.04001 0.0858,0.530822 0.05409,1.465609 l -0.05193,1.531135 0.610287,-0.09094 c 1.134888,-0.169105 4.598495,-0.09319 5.82621,0.127701 1.602237,0.288273 3.225141,0.790578 4.47889,1.38626 l 1.077202,0.511801 -0.963655,0.48785 -0.963655,0.48785 -0.850579,-0.426681 C 55.694628,22.57089 51.509566,21.928744 47.999467,22.409677 l -0.474597,0.06503 0.152811,-0.663769 c 0.499103,-2.167972 0.988458,-4.832263 1.413158,-7.693927 0.508303,-3.424984 1.03461,-8.5609163 0.877284,-8.5609163 -0.09773,0 -3.169358,4.6582013 -4.437338,6.7293293 -0.605044,0.988285 -1.658795,2.787252 -2.341667,3.997706 -0.950753,1.685294 -1.366975,2.311285 -1.776873,2.67239 -1.237919,1.090564 -3.679303,3.658222 -4.780763,5.02804 -1.056198,1.313527 -3.235158,4.46142 -3.148301,4.548277 0.01853,0.01853 0.796762,0.186362 1.729413,0.37297 2.634346,0.527085 4.525797,0.702951 7.535295,0.700625 l 2.664656,-0.0021 0.0048,2.745359 c 0.0036,2.027707 0.0569,3.086226 0.204035,4.04934 0.231097,1.5127 0.736965,3.872343 0.857262,3.998728 0.104781,0.110085 1.040955,-1.039083 1.432395,-1.758288 0.176382,-0.324071 0.305042,-0.7519 0.316659,-1.052975 0.01697,-0.439864 0.05243,-0.507123 0.267312,-0.507125 0.738809,-7e-6 1.437576,-0.695912 2.846401,-2.834743 1.387779,-2.106879 2.395577,-3.374723 4.022015,-5.059827 1.36312,-1.41229 3.792267,-3.515864 3.916527,-3.391604 0.09574,0.09574 -0.85823,1.920624 -1.57283,3.008729 -0.348135,0.530096 -1.131117,1.499577 -1.739962,2.154403 -1.353486,1.455704 -2.480111,3.109975 -3.074666,4.514667 -0.340595,0.804688 -0.530772,1.108003 -0.79843,1.273424 -0.834812,0.515942 -2.099275,2.184062 -2.424162,3.198032 -0.07991,0.249391 -0.49227,0.812008 -0.997289,1.360675 -0.473575,0.514508 -1.222107,1.42021 -1.663402,2.012671 -0.812965,1.091445 -2.149146,3.225559 -2.282389,3.645371 -0.04002,0.126073 -1.018783,1.411211 -2.175041,2.855859 l -2.102284,2.626629 z"
     id="path1611" />
</svg>
